# xmcd CD database file
#
# Track frame offsets:
#	150
#	14651
#	28554
#	42488
#	55484
#	69667
#	80972
#	91252
#	102974
#	121969
#	132722
#	156203
#	174769
#	188993
#	213225
#	231250
#
# Disc length: 3259 seconds
#
# Revision: 9
# Processed by: cddbd v1.5.1PL2 Copyright (c) Steve Scherf et al.
# Submitted via: cdripper 1,0,32,406
#
DISCID=e50cb910
DTITLE=John Lee Hooker - The Very Best Of 
DYEAR=1995
DGENRE=Blues
TTITLE0=Boogie Chillen'
TTITLE1=Crawlin' King Snake
TTITLE2=Hobo Blues
TTITLE3=Huckle Up Baby
TTITLE4=I'm In The Mood
TTITLE5=I Need Some Money
TTITLE6=Dimples
TTITLE7=Boom Boom
TTITLE8=Shake It Baby (Ft T-Bone Walker)
TTITLE9=Big Legs, Tight Skirt
TTITLE10=It Serves You Right To Suffer
TTITLE11=You Know, I Know
TTITLE12=One Bourbon, One Scotch, One Beer
TTITLE13=I'm Bad Like Jesse James (Ft Otis Spann)
TTITLE14=Burning Hell
TTITLE15=Terraplane Blues (Ft Roy Rogers)
EXTD=DISC: 1\nUPC: 081227191528\nLABEL: Rhino\nENSORECORD: 123686\nction to the seminal bluesman, presenting over 15 classic tracks in theiroriginal hit versions. -- Stephen Thomas Erlewine, All-Music GuideQ Magazine \n1/96, p.159  3 Stars - Good - "...I
EXTD=ntense, individual and includes all the best-known songs....a value package..."\n YEAR: 1995
EXTT0=
EXTT1=
EXTT2=
EXTT3=
EXTT4=
EXTT5=
EXTT6=
EXTT7=
EXTT8=
EXTT9=
EXTT10=
EXTT11=
EXTT12=
EXTT13=
EXTT14=
EXTT15=
PLAYORDER=
